
<svg xmlns="http://www.w3.org/2000/svg" xml:space="preserve" version="1.1" class="w-12 h-15 text-white lg:w-24 lg:h-20" style="shape-rendering:geometricPrecision; text-rendering:geometricPrecision; image-rendering:optimizeQuality; fill-rule:evenodd; clip-rule:evenodd"
viewBox="0 0 67917.1 18930.59"
 xmlns:xlink="http://www.w3.org/1999/xlink"
 xmlns:xodm="http://www.corel.com/coreldraw/odm/2003">
 <defs>
  <style type="text/css">
   <![CDATA[
    .fil0 {fill:none}
    .fil3 {fill:#031752}
    .fil2 {fill:#031752;fill-rule:nonzero}
    .fil1 {fill:#F94604;fill-rule:nonzero}
   ]]>
  </style>
 </defs>
 <g id="Capa_x0020_1">
  <metadata id="CorelCorpID_0Corel-Layer"/>
  <rect class="fil0" y="-0" width="67917.1" height="18930.59"/>
  <polygon class="fil1" points="22108.72,7256.44 19319.62,7256.44 16593.22,10437.29 19381.48,10437.29 "/>
  <path class="fil2" d="M19381.48 12535.61c-616.5,281.82 -1233,405.13 -1884.72,405.13 -2078.49,0 -3487.64,-1444.37 -3487.64,-3522.87 0,-2131.33 1409.14,-3522.85 3522.87,-3522.85 426.04,0 824.53,57.42 1199.62,174.68l2017.99 -2354.33c-972.14,-465.65 -2115.31,-709.1 -3393.76,-709.1 -3998.44,0 -6869.59,2659.77 -6869.59,6411.6 0,3751.86 2871.15,6411.6 6799.13,6411.6 1796.66,0 3751.84,-546.02 5178.61,-1567.66l0 -7005.37 -0.01 0 -3082.51 3595.22 0 1683.96z"/>
  <polygon class="fil3" points="2891.72,3007.72 5996.48,3007.71 10033.85,13341.16 7901.42,15829.47 "/>
  <polygon class="fil2" points="37992.36,15829.47 42318.35,15829.47 42318.35,14552.82 39602.4,14552.82 39602.4,10137.37 37992.36,10137.37 "/>
  <polygon class="fil2" points="30871.58,10136.92 32552.75,10137.37 30121.4,15829.47 28439.93,15829.61 "/>
  <path class="fil2" d="M46711.99 3009.32l-2686.06 0 0 5875.75 1662 0 0 -1536.09 1024.06 0c1603.25,0 2610.51,-831 2610.51,-2165.62 0,-1343.04 -1007.26,-2174.03 -2610.51,-2174.03zm-100.73 3030.2l-923.33 0 0 -1720.76 923.33 0c688.3,0 1032.46,318.98 1032.46,864.59 0,537.2 -344.16,856.17 -1032.46,856.17z"/>
  <path class="fil2" d="M40797.01 9002.58c1737.53,0 2761.61,-982.09 2761.61,-2736.42l0 -3256.84 -1636.83 0 0 3206.48c0,1007.26 -419.69,1410.18 -1107.99,1410.18 -696.7,0 -1116.4,-402.92 -1116.4,-1410.18l0 -3206.48 -1661.99 0 0 3256.84c0,1754.33 1024.05,2736.42 2761.61,2736.42z"/>
  <path class="fil2" d="M35906.08 8885.07l1779.5 0 -1267.47 -1846.66c730.27,-352.56 1149.96,-990.49 1149.96,-1855.06 0,-1343.04 -1007.26,-2174.03 -2610.51,-2174.03l-2686.06 0 0 5875.75 1662 0 0 -1561.28 906.54 0 1066.04 1561.28zm-16.79 -3701.72c0,537.2 -344.16,856.17 -1032.46,856.17l-923.33 0 0 -1720.76 923.33 0c688.3,0 1032.46,318.98 1032.46,864.59z"/>
  <path class="fil3" d="M52747.2 2989.82c1633.31,0 2957.36,1324.05 2957.36,2957.37 0,1633.31 -1324.05,2957.36 -2957.36,2957.36 -1633.31,0 -2957.36,-1324.05 -2957.36,-2957.36 0,-1633.32 1324.05,-2957.37 2957.36,-2957.37zm0 1332.68c897.3,0 1624.69,727.39 1624.69,1624.69 0,897.29 -727.39,1624.68 -1624.69,1624.68 -897.29,0 -1624.69,-727.39 -1624.69,-1624.68 0,-897.3 727.4,-1624.69 1624.69,-1624.69z"/>
  <path class="fil2" d="M30335.23 7432.91c-293.79,134.3 -587.57,193.06 -898.15,193.06 -990.48,0 -1661.99,-688.31 -1661.99,-1678.79 0,-1015.67 671.51,-1678.79 1678.78,-1678.79 203.03,0 392.93,27.36 571.68,83.24l961.65 -1121.93c-463.26,-221.9 -1008.02,-337.92 -1617.26,-337.92 -1905.42,0 -3273.64,1267.48 -3273.64,3055.4 0,1787.91 1368.22,3055.39 3240.06,3055.39 856.18,0 1787.91,-260.21 2467.82,-747.06l0 -3140.89 -1498.43 0 -1100.74 1284.22 1130.23 0 0 1034.06z"/>
  <polygon class="fil2" points="60699.38,15829.47 65025.38,15829.47 65025.38,14552.82 62309.43,14552.82 62309.43,10137.37 60699.38,10137.37 "/>
  <path class="fil2" d="M52248.2 15829.47l1723.89 0 -1227.85 -1788.94c707.43,-341.53 1114.01,-959.53 1114.01,-1797.08 0,-1301.05 -975.78,-2106.08 -2528.92,-2106.08l-2602.1 0 0 5692.1 1610.05 0 0 -1512.47 878.2 0 1032.72 1512.47zm-16.27 -3586.02c0,520.43 -333.39,829.43 -1000.18,829.43l-894.48 0 0 -1666.98 894.48 0c666.78,0 1000.18,309 1000.18,837.55z"/>
  <path class="fil3" d="M57274.69 10026.06c1633.31,0 2957.36,1324.05 2957.36,2957.36 0,1633.31 -1324.05,2957.36 -2957.36,2957.36 -1633.31,0 -2957.36,-1324.05 -2957.36,-2957.36 0,-1633.31 1324.05,-2957.36 2957.36,-2957.36zm0 1332.67c897.3,0 1624.69,727.4 1624.69,1624.69 0,897.3 -727.39,1624.69 -1624.69,1624.69 -897.29,0 -1624.69,-727.39 -1624.69,-1624.69 0,-897.29 727.4,-1624.69 1624.69,-1624.69z"/>
  <path class="fil2" d="M46790.96 14469.15c-293.79,134.3 -587.58,193.06 -898.15,193.06 -990.49,0 -1662,-688.31 -1662,-1678.8 0,-1015.66 671.51,-1678.78 1678.79,-1678.78 203.02,0 392.92,27.36 571.67,83.24l961.66 -1121.94c-463.26,-221.9 -1008.03,-337.91 -1617.26,-337.91 -1905.42,0 -3273.64,1267.48 -3273.64,3055.39 0,1787.91 1368.22,3055.4 3240.06,3055.4 856.18,0 1787.9,-260.21 2467.81,-747.06l0 -3140.89 -1498.42 0 -1100.74 1284.22 1130.23 0 0 1034.06z"/>
  <polygon class="fil1" points="27595.18,10137.37 29096.89,13667.16 28307.21,15517.56 26001.39,10137.37 "/>
  <path class="fil2" d="M35908.59 15829.47l1616.44 0 -2432.52 -5692.1 -1530.13 0 -2424.68 5692.1 1585.06 0 431.58 -1105.89 2322.67 0 431.59 1105.89zm-2299.13 -2293.09l706.22 -1821.48 706.22 1821.48 -1412.43 0z"/>
 </g>
</svg>
